<svg xmlns="http://www.w3.org/2000/svg" xmlns:xlink="http://www.w3.org/1999/xlink" version="1.1" x="0px" y="0px" width="100px" height="100px" viewBox="0 0 100 100" enable-background="new 0 0 100 100" xml:space="preserve">
	<path d="M50,99.01c-2.806,0-5.089-2.283-5.089-5.089c0-1.617,0.775-3.134,2.056-4.087l0.017-24.213   c-3.58-1.263-6.018-4.661-6.018-8.519V1.99c0-0.552,0.448-1,1-1h4.007c0.552,0,1,0.448,1,1v54.909c0,1.669,1.358,3.027,3.027,3.027   s3.027-1.358,3.027-3.027V1.99c0-0.552,0.448-1,1-1h4.007c0.552,0,1,0.448,1,1v55.112c0,3.87-2.449,7.272-6.045,8.528   l-0.018,24.158c1.319,0.95,2.118,2.483,2.118,4.132C55.089,96.727,52.806,99.01,50,99.01z M42.966,2.99v54.112   c0,3.209,2.167,6.01,5.269,6.811c0.442,0.114,0.75,0.513,0.75,0.969l-0.018,25.491c0,0.358-0.192,0.688-0.502,0.867   c-0.958,0.55-1.554,1.578-1.554,2.682c0,1.703,1.386,3.089,3.089,3.089s3.089-1.386,3.089-3.089c0-1.126-0.613-2.164-1.601-2.708   c-0.319-0.176-0.518-0.512-0.517-0.876l0.019-25.449c0-0.457,0.31-0.855,0.753-0.968c3.116-0.794,5.292-3.597,5.292-6.817V2.99   h-2.007v53.909c0,2.772-2.255,5.027-5.027,5.027s-5.027-2.255-5.027-5.027V2.99H42.966z"/>
</svg>
